<?xml version='1.0' encoding='utf-8'?>
<svg xmlns="http://www.w3.org/2000/svg" version="1.1" id="svg1" width="408.02267" height="89.601593" viewBox="0 0 408.02267 89.601591">
  <defs id="defs1">
    <clipPath clipPathUnits="userSpaceOnUse" id="clipPath3">
      <path d="M 0,104.806 H 344.898 V 0 H 0 Z" transform="translate(-83.572705,-66.574002)" id="path3" />
    </clipPath>
    <clipPath clipPathUnits="userSpaceOnUse" id="clipPath5">
      <path d="M 0,104.806 H 344.898 V 0 H 0 Z" transform="translate(-201.36211,-65.907602)" id="path5" />
    </clipPath>
    <clipPath clipPathUnits="userSpaceOnUse" id="clipPath7">
      <path d="M 0,104.806 H 344.898 V 0 H 0 Z" transform="translate(-218.50231,-52.255401)" id="path7" />
    </clipPath>
    <clipPath clipPathUnits="userSpaceOnUse" id="clipPath9">
      <path d="M 0,104.806 H 344.898 V 0 H 0 Z" transform="translate(-133.9953,-43.509501)" id="path9" />
    </clipPath>
    <clipPath clipPathUnits="userSpaceOnUse" id="clipPath11">
      <path d="M 0,104.806 H 344.898 V 0 H 0 Z" transform="translate(-126.8541,-85.442902)" id="path11" />
    </clipPath>
    <clipPath clipPathUnits="userSpaceOnUse" id="clipPath13">
      <path d="M 0,104.806 H 344.898 V 0 H 0 Z" transform="translate(-183.1663,-34.794301)" id="path13" />
    </clipPath>
    <clipPath clipPathUnits="userSpaceOnUse" id="clipPath15">
      <path d="M 0,104.806 H 344.898 V 0 H 0 Z" id="path15" />
    </clipPath>
    <clipPath clipPathUnits="userSpaceOnUse" id="clipPath17">
      <path d="M 0,104.806 H 344.898 V 0 H 0 Z" transform="translate(-225.22351,-34.444701)" id="path17" />
    </clipPath>
    <clipPath clipPathUnits="userSpaceOnUse" id="clipPath19">
      <path d="M 0,104.806 H 344.898 V 0 H 0 Z" transform="translate(-231.1306,-20.810403)" id="path19" />
    </clipPath>
    <clipPath clipPathUnits="userSpaceOnUse" id="clipPath21">
      <path d="M 0,104.806 H 344.898 V 0 H 0 Z" id="path21" />
    </clipPath>
    <clipPath clipPathUnits="userSpaceOnUse" id="clipPath23">
      <path d="M 0,104.806 H 344.898 V 0 H 0 Z" transform="translate(-323.27311,-47.236301)" id="path23" />
    </clipPath>
  </defs>
  <g id="layer-MC0" transform="translate(-25.8108,-24.929867)">
    <path id="path1" d="M 0,0 H 8.547 V -15.373 H 24.308 V 0 h 8.546 v -38.848 h -8.546 v 15.595 H 8.547 V -38.848 H 0 Z" style="fill:#005a96;fill-opacity:1;fill-rule:nonzero;stroke:none" transform="matrix(1.3333333,0,0,-1.3333333,25.8108,25.817467)" />
    <path id="path2" d="m 0,0 c 4.162,0 6.549,2.22 6.549,5.494 v 0.111 c 0,3.663 -2.553,5.55 -6.715,5.55 H -8.657 V 0 Z M -17.204,18.869 H 0.555 c 4.939,0 8.768,-1.388 11.321,-3.94 2.165,-2.165 3.33,-5.217 3.33,-8.88 V 5.938 c 0,-6.271 -3.385,-10.211 -8.324,-12.042 l 9.49,-13.875 h -9.99 l -8.324,12.432 h -6.715 v -12.432 h -8.547 z" style="fill:#005a96;fill-opacity:1;fill-rule:nonzero;stroke:none" transform="matrix(1.3333333,0,0,-1.3333333,111.43027,50.976)" clip-path="url(#clipPath3)" />
    <path id="path4" d="M 0,0 V 0.111 C 0,6.77 -4.884,12.32 -11.765,12.32 -18.647,12.32 -23.42,6.882 -23.42,0.222 V 0.111 c 0,-6.66 4.884,-12.21 11.766,-12.21 C -4.773,-12.099 0,-6.66 0,0 m -32.354,0 v 0.111 c 0,11.044 8.712,20.09 20.7,20.09 11.987,0 20.589,-8.935 20.589,-19.979 V 0.111 c 0,-11.044 -8.713,-20.09 -20.7,-20.09 -11.988,0 -20.589,8.935 -20.589,19.979" style="fill:#005a96;fill-opacity:1;fill-rule:nonzero;stroke:none" transform="matrix(1.3333333,0,0,-1.3333333,268.4828,51.864533)" clip-path="url(#clipPath5)" />
    <path id="path6" d="m 0,0 5.05,6.049 c 3.496,-2.886 7.159,-4.717 11.599,-4.717 3.496,0 5.605,1.387 5.605,3.663 v 0.11 c 0,2.165 -1.332,3.275 -7.825,4.94 C 6.604,12.043 1.554,14.207 1.554,21.921 v 0.111 c 0,7.048 5.66,11.71 13.597,11.71 5.66,0 10.488,-1.776 14.429,-4.939 l -4.44,-6.438 c -3.441,2.386 -6.826,3.83 -10.1,3.83 -3.275,0 -4.995,-1.499 -4.995,-3.386 v -0.111 c 0,-2.553 1.665,-3.385 8.38,-5.106 7.88,-2.053 12.32,-4.883 12.32,-11.654 V 5.827 C 30.745,-1.887 24.863,-6.216 16.482,-6.216 10.6,-6.216 4.662,-4.163 0,0" style="fill:#005a96;fill-opacity:1;fill-rule:nonzero;stroke:none" transform="matrix(1.3333333,0,0,-1.3333333,291.3364,70.067467)" clip-path="url(#clipPath7)" />
    <path id="path8" d="m 0,0 -6.358,5.711 c 8.946,9.96 14.26,22.824 14.962,36.222 h 8.535 C 17.823,28.888 22.653,16.755 31.109,6.845 L 24.607,1.298 C 19.507,7.276 15.558,13.958 12.848,21.127 9.916,13.393 5.573,6.204 0,0" style="fill:#005a96;fill-opacity:1;fill-rule:nonzero;stroke:none" transform="matrix(1.3333333,0,0,-1.3333333,178.6604,81.728667)" clip-path="url(#clipPath9)" />
    <path id="path10" d="m 0,0 h -8.535 c -0.656,-12.514 -5.16,-24.255 -13.027,-33.956 l 6.638,-5.383 c 4.984,6.145 8.789,13.003 11.323,20.331 1.538,-3.02 3.424,-5.88 5.633,-8.545 1.876,2.737 3.51,5.657 4.872,8.73 C 2.6,-13.745 0,-7.178 0,0" style="fill:#005a96;fill-opacity:1;fill-rule:nonzero;stroke:none" transform="matrix(1.3333333,0,0,-1.3333333,169.1388,25.817467)" clip-path="url(#clipPath11)" />
    <path id="path12" d="m 0,0 c 0.544,-8.313 2.836,-11.906 4.448,-14.042 l -1.923,-1.496 c -3.146,4.099 -4.545,10.43 -4.797,15.286 z m -13.421,-14.1 c 3.108,3.962 4.099,9.05 4.409,14.061 l 2.195,-0.311 c -0.447,-6.681 -2,-11.633 -4.739,-15.246 z" style="fill:#005a96;fill-opacity:1;fill-rule:nonzero;stroke:none" transform="matrix(1.3333333,0,0,-1.3333333,244.22173,93.348933)" clip-path="url(#clipPath13)" />
    <path id="path14" d="m 204.657,26.396 h -13.789 v 2.086 h 13.789 z" style="fill:#005a96;fill-opacity:1;fill-rule:nonzero;stroke:none" transform="matrix(1.3333333,0,0,-1.3333333,0,139.74133)" clip-path="url(#clipPath15)" />
    <path id="path16" d="m 0,0 v -2.078 h -7.944 v -3.896 h 9.09 v -2.078 h -9.09 v -4.028 c 0,-0.777 0.078,-1.049 1.224,-1.049 h 2.933 c 0.66,0 3.554,0.058 4.156,0.058 l -0.136,-2.175 h -7.71 c -1.71,0 -2.68,1.107 -2.68,2.369 v 4.825 h -5.322 v 2.078 h 5.322 v 3.896 h -4.507 V 0 Z" style="fill:#005a96;fill-opacity:1;fill-rule:nonzero;stroke:none" transform="matrix(1.3333333,0,0,-1.3333333,300.298,93.815067)" clip-path="url(#clipPath17)" />
    <path id="path18" d="M 0,0 C 4.156,1.515 9.051,5.749 11.206,11.653 H 1.107 V 13.77 H 14.159 C 13.887,12.605 13.207,9.536 10.43,5.71 12.702,3.884 14.916,1.981 16.994,-0.058 L 15.169,-1.903 C 12.974,0.68 10.002,3.302 9.109,4.04 6.856,1.437 4.409,-0.583 1.34,-1.826 Z" style="fill:#005a96;fill-opacity:1;fill-rule:nonzero;stroke:none" transform="matrix(1.3333333,0,0,-1.3333333,308.17413,111.99413)" clip-path="url(#clipPath19)" />
    <path id="path20" d="m 275.689,65.92 h -3.556 v -3.185 h 3.556 z m -5.782,0 h -3.526 v -3.185 h 3.526 z m -3.371,7.113 v 2.226 h 2.289 v -2.226 h 4.267 v 2.226 h 2.319 v -2.226 h 3.773 V 70.93 h -3.773 v -2.536 h -2.319 v 2.536 h -4.267 v -2.536 h -2.289 v 2.536 h -3.556 v 2.103 z m 12.741,-6.556 v 2.412 h 3.618 v 6.37 h 2.443 v -6.37 h 5.287 c 0,-4.639 0,-15.338 -0.896,-19.575 -0.217,-0.989 -0.588,-2.69 -3.124,-2.69 h -3.185 l -0.432,2.598 3.061,-0.031 c 1.082,0 1.392,0.494 1.515,1.608 0.402,3.865 0.433,5.071 0.742,15.678 h -2.968 C 285.09,52.84 281.009,48.201 279.4,46.407 l -2.04,1.67 c 0.587,0.588 0.68,0.712 0.803,0.866 -1.02,-0.185 -4.7,-0.742 -15.183,-1.298 l -0.217,2.319 c 0.155,0 6.525,0.309 7.144,0.34 v 2.536 h -5.319 v 1.855 h 5.319 v 2.01 h -5.937 v 1.979 h 5.937 v 2.134 h -5.783 v 6.989 h 13.823 v -6.989 h -5.814 v -2.134 h 6 v -1.979 h -6 v -2.01 h 5.412 V 52.84 h -5.412 v -2.412 c 3.495,0.216 4.917,0.401 6.03,0.556 l 0.062,-1.979 c 2.412,2.845 3.464,6.618 3.959,9.525 0.494,3.061 0.711,5.999 0.711,7.947 z" style="fill:#005a96;fill-opacity:1;fill-rule:nonzero;stroke:none" transform="matrix(1.3333333,0,0,-1.3333333,0,139.74133)" clip-path="url(#clipPath21)" />
    <path id="path22" d="m 0,0 c -1.237,2.69 -3.495,5.782 -4.824,7.329 l 1.979,1.113 C -0.587,6.03 1.051,3.402 2.102,1.515 Z m -10.638,4.515 c -1.392,1.206 -3.71,2.69 -5.411,3.401 l 1.329,1.794 c 1.052,-0.464 3.402,-1.577 5.597,-3.247 z m -6.277,2.412 V 2.628 c 0,-0.556 0.03,-0.773 0.958,-0.773 h 6.68 c 1.422,0 1.577,0.341 1.979,3.464 L -4.886,4.67 C -4.948,3.463 -5.35,1.546 -5.876,0.711 -6.185,0.185 -6.741,-0.464 -8.659,-0.464 h -8.194 c -1.392,0 -2.598,0.371 -2.598,1.887 v 5.504 z m 13.08,9.401 H -20.904 V 12.37 h 17.069 z m 2.443,-6.123 h -21.956 v 8.287 H -1.392 Z M -6.989,27.058 C -4.886,25.759 -1.175,23.1 1.392,20.502 L -0.587,18.77 c -0.619,0.588 -1.145,1.114 -2.227,2.103 -14.379,-0.556 -15.987,-0.618 -23.379,-0.618 l -0.154,2.226 c 0.804,-0.031 3.773,0 4.948,0 0.34,0.403 2.133,2.474 3.927,5.288 l 2.876,-0.432 c -1.948,-2.907 -3.494,-4.546 -3.773,-4.856 3.093,0.031 9.68,0.186 13.297,0.248 -2.164,1.639 -3.061,2.226 -3.865,2.721 z M -27.058,1.515 c 1.824,1.98 2.845,3.928 3.68,6.68 l 2.319,-0.959 c -0.557,-1.701 -1.577,-4.608 -3.989,-7.391 z" style="fill:#005a96;fill-opacity:1;fill-rule:nonzero;stroke:none" transform="matrix(1.3333333,0,0,-1.3333333,431.0308,76.7596)" clip-path="url(#clipPath23)" />
  </g>
</svg>